<?xml version="1.0" standalone="no"?>
<!DOCTYPE svg PUBLIC "-//W3C//DTD SVG 20010904//EN"
 "http://www.w3.org/TR/2001/REC-SVG-20010904/DTD/svg10.dtd">
<svg version="1.0" xmlns="http://www.w3.org/2000/svg"
 width="224.000000pt" height="224.000000pt" viewBox="0 0 224.000000 224.000000"
 preserveAspectRatio="xMidYMid meet">
<metadata>
Created by potrace 1.14, written by Peter Selinger 2001-2017
</metadata>
<g transform="translate(0.000000,224.000000) scale(0.100000,-0.100000)"
fill="#000000" stroke="none">
<path d="M1805 2092 c-49 -30 -60 -49 -48 -81 13 -35 2 -56 -37 -76 -45 -23
-50 -19 -32 30 28 76 -17 110 -81 61 -19 -14 -48 -31 -65 -37 -17 -6 -34 -19
-37 -28 -4 -13 -13 -17 -30 -13 -16 3 -40 -6 -71 -27 -26 -17 -53 -31 -60 -31
-7 0 -19 -9 -27 -21 -8 -11 -21 -19 -28 -17 -18 4 -169 -71 -169 -83 0 -5 -13
-9 -29 -9 -16 0 -35 -7 -42 -17 -8 -9 -37 -27 -66 -39 -78 -35 -82 -86 -7
-100 44 -8 43 -19 -5 -44 -22 -11 -43 -25 -47 -31 -3 -6 -1 -44 6 -84 12 -69
11 -76 -9 -119 -24 -49 -15 -41 -605 -515 -217 -175 -316 -261 -316 -274 0
-17 6 -14 45 17 25 20 65 52 89 72 31 24 43 41 39 52 -3 12 -2 14 4 4 7 -9 35
7 111 69 56 44 100 85 96 90 -3 5 2 9 11 9 23 0 216 160 208 173 -3 6 -1 7 5
3 17 -11 256 185 240 197 -9 6 -8 7 4 3 12 -3 59 29 148 100 71 58 130 107
130 109 0 3 -7 2 -15 -1 -17 -7 -31 37 -20 63 6 15 9 12 16 -14 12 -41 26 -49
48 -29 24 22 38 20 17 -3 -16 -17 -15 -18 8 -16 34 4 130 85 116 99 -13 13
-13 63 0 71 6 3 10 -4 10 -18 0 -32 23 -52 38 -34 9 10 8 17 -1 27 -9 10 -9
11 1 6 6 -4 19 0 28 9 28 28 28 7 0 -30 -19 -25 -22 -33 -10 -28 12 4 15 3 10
-6 -5 -7 -14 -10 -22 -7 -8 3 -146 -104 -346 -271 -183 -151 -335 -277 -337
-279 -3 -2 6 -15 19 -29 28 -30 16 -34 -15 -5 l-21 20 -158 -132 c-142 -118
-156 -133 -136 -140 22 -8 23 -29 1 -36 -7 -2 -15 5 -18 17 -7 28 -11 27 -60
-17 l-42 -37 23 -26 23 -26 102 84 c98 82 101 86 81 100 -11 8 -20 19 -20 25
0 6 11 1 24 -12 l25 -23 128 110 c70 60 173 147 227 192 l100 83 18 -22 18
-22 99 89 c54 48 213 192 353 318 238 215 254 231 242 250 -17 24 -18 49 -1
63 9 8 13 4 14 -14 7 -69 5 -66 33 -39 35 34 49 32 19 -2 -13 -16 -17 -22 -9
-15 20 17 35 15 20 -3 -7 -9 -19 -13 -27 -11 -9 4 -76 -50 -172 -137 -86 -78
-250 -225 -363 -327 -131 -117 -202 -188 -195 -192 8 -5 8 -8 1 -8 -6 0 -22
10 -35 23 l-24 23 -74 -61 c-41 -33 -91 -76 -112 -95 -35 -32 -38 -37 -24 -54
15 -20 27 -11 207 153 15 13 30 22 33 19 3 -2 -44 -47 -105 -98 -60 -51 -107
-97 -103 -103 3 -6 2 -7 -4 -4 -5 4 -146 -111 -312 -254 -166 -144 -304 -259
-306 -257 -3 2 29 32 70 67 108 92 109 94 87 115 -18 16 -25 11 -151 -95 -73
-61 -134 -109 -137 -106 -3 3 12 19 34 37 l39 31 -26 28 c-23 24 -28 25 -43
13 -14 -12 -17 -32 -17 -108 0 -107 -5 -105 82 -28 43 38 45 42 30 57 -9 9
-13 20 -9 24 5 5 11 2 14 -6 2 -7 13 -22 24 -33 13 -13 15 -18 5 -16 -21 4
-147 -109 -147 -133 0 -19 36 12 765 646 313 273 310 270 394 269 47 0 78 -7
108 -22 23 -12 47 -22 52 -22 5 0 26 24 45 53 19 28 52 66 73 84 119 100 602
555 627 590 73 105 28 246 -99 304 -52 24 -121 24 -160 1z m179 -28 c51 -36
96 -120 96 -179 0 -69 -35 -116 -185 -252 -77 -69 -185 -168 -240 -218 -226
-207 -305 -276 -305 -267 0 36 50 87 332 339 172 154 324 292 337 307 35 38
41 127 13 183 -40 78 -110 115 -183 95 -28 -7 -34 -13 -31 -33 7 -62 5 -88 -8
-104 -25 -30 -746 -385 -782 -385 -20 0 -28 4 -23 9 6 6 181 96 390 201 209
105 383 197 388 203 4 7 6 32 5 57 -3 42 -1 46 32 63 48 25 111 17 164 -19z
m-310 -30 c9 -3 16 -16 15 -28 0 -14 -2 -16 -6 -6 -3 8 -12 21 -21 28 -17 13
-13 15 12 6z m-175 -133 c-2 -6 -10 2 -17 17 -11 25 -11 25 4 10 9 -9 15 -21
13 -27z m85 -21 c5 -5 -15 -20 -43 -34 -55 -28 -63 -23 -39 29 10 22 16 25 42
19 17 -3 35 -10 40 -14z m-276 -75 c-3 -3 -9 2 -12 12 -6 14 -5 15 5 6 7 -7
10 -15 7 -18z m467 15 c3 -5 -1 -10 -10 -10 -9 0 -13 5 -10 10 3 6 8 10 10 10
2 0 7 -4 10 -10z m-398 -31 l28 -11 -55 -28 c-30 -15 -56 -24 -58 -20 -6 15
28 70 43 70 7 0 26 -5 42 -11z m403 -5 c0 -2 -7 -4 -15 -4 -8 0 -15 4 -15 10
0 5 7 7 15 4 8 -4 15 -8 15 -10z m-666 -60 c7 -19 2 -18 -19 6 -16 17 -16 20
-3 15 9 -4 19 -13 22 -21z m483 -11 c6 -16 -29 -26 -41 -12 -8 9 -6 10 8 5 14
-5 17 -2 12 10 -4 10 -1 14 6 12 6 -2 13 -9 15 -15z m-91 -9 c-4 -9 0 -27 8
-39 8 -13 12 -25 9 -29 -23 -23 -51 30 -34 63 14 25 26 28 17 5z m-321 -8 l30
-13 -53 -27 c-30 -15 -57 -25 -60 -22 -9 10 26 76 40 76 7 -1 27 -7 43 -14z
m383 -43 c-7 -9 -7 -13 2 -13 19 0 6 -10 -18 -15 -18 -3 -403 -337 -534 -463
-26 -25 -50 -43 -53 -40 -3 3 115 113 262 243 347 308 329 290 314 309 -11 13
-9 13 13 3 18 -9 22 -15 14 -24z m-183 -33 c-3 -5 -11 -10 -16 -10 -6 0 -7 5
-4 10 3 6 11 10 16 10 6 0 7 -4 4 -10z m-175 -116 c0 -8 -4 -14 -10 -14 -5 0
-10 9 -10 21 0 11 5 17 10 14 6 -3 10 -13 10 -21z m-30 -5 c0 -5 -4 -9 -10 -9
-5 0 -10 7 -10 16 0 8 5 12 10 9 6 -3 10 -10 10 -16z m-26 -15 c3 -8 2 -12 -4
-9 -6 3 -10 10 -10 16 0 14 7 11 14 -7z m306 -34 c0 -5 -4 -10 -10 -10 -5 0
-10 5 -10 10 0 6 5 10 10 10 6 0 10 -4 10 -10z m-510 -322 c0 -13 -27 -9 -40
7 -19 23 -1 39 21 19 10 -9 19 -21 19 -26z m60 -8 c0 -5 -4 -10 -10 -10 -5 0
-10 5 -10 10 0 6 5 10 10 10 6 0 10 -4 10 -10z"/>
<path d="M1087 1380 c-30 -25 -145 -119 -256 -210 -112 -90 -198 -166 -192
-168 6 -2 11 -8 11 -14 0 -7 -5 -6 -14 2 -12 9 -57 -23 -253 -181 -423 -343
-386 -310 -362 -327 18 -13 23 -12 42 5 12 11 100 84 195 162 140 116 171 146
161 157 -7 9 -8 14 -1 14 6 0 12 -5 14 -12 3 -9 655 520 742 602 18 18 18 18
-7 17 -14 -1 -50 -22 -80 -47z m-167 -166 c0 -8 -5 -12 -10 -9 -6 4 -8 11 -5
16 9 14 15 11 15 -7z m-25 -24 c-3 -5 -10 -10 -16 -10 -5 0 -9 5 -9 10 0 6 7
10 16 10 8 0 12 -4 9 -10z m-670 -550 c3 -5 2 -10 -4 -10 -5 0 -13 5 -16 10
-3 6 -2 10 4 10 5 0 13 -4 16 -10z"/>
<path d="M498 723 c-205 -173 -206 -175 -187 -194 19 -19 20 -19 120 67 80 70
97 89 85 96 -9 5 -16 14 -16 20 0 6 9 3 19 -6 19 -18 23 -15 120 69 90 78 99
88 88 106 -6 10 -14 19 -17 18 -3 0 -98 -79 -212 -176z"/>
<path d="M142 534 c-51 -42 -92 -79 -92 -83 0 -4 10 -17 23 -29 l23 -22 85 72
c47 40 87 75 89 78 3 3 -4 17 -16 32 l-21 27 -91 -75z"/>
<path d="M0 460 c0 -19 3 -21 12 -12 9 9 9 15 0 24 -9 9 -12 7 -12 -12z"/>
</g>
</svg>
